<svg xmlns="http://www.w3.org/2000/svg" viewBox="0 0 24 24" fill-rule="evenodd" clip-rule="evenodd">
    <circle fill="#8f98a3" cx="12" cy="12" r="12"/>
    <path fill="#fff" fill-rule="nonzero" d="M17.581 6.48a2.629 2.629 0 011.814.765 2.627 2.627 0 01.765 1.814c.013 1.961.013 3.921 0 5.882a2.582 2.582 0 01-.148.835 2.627 2.627 0 01-1.566 1.585 2.629 2.629 0 01-.865.159c-3.72.024-7.442.024-11.162 0a2.629 2.629 0 01-1.814-.765 2.627 2.627 0 01-.765-1.814 443.568 443.568 0 010-5.882 2.582 2.582 0 01.148-.835 2.627 2.627 0 011.566-1.585 2.629 2.629 0 01.865-.159c3.72-.024 7.442-.024 11.162 0zm-11.127.96a1.632 1.632 0 00-.569.1A1.66 1.66 0 004.8 9.071a439.956 439.956 0 000 5.858c.004.187.036.371.1.546a1.66 1.66 0 001.531 1.085c3.713.024 7.425.024 11.138 0a1.66 1.66 0 001.631-1.631c.013-1.953.013-3.905 0-5.858a1.69 1.69 0 00-.1-.546 1.66 1.66 0 00-1.531-1.085c-3.705-.024-7.41 0-11.115 0z"/>
    <circle fill="#fff" cx="9.36" cy="12" r="3.36"/>
    <path fill="#8f98a3" d="M9.805 11.036c.084 0 .148.065.148.148v2.374h.446c.083 0 .148.065.148.148v.742a.146.146 0 01-.148.148H8.321a.146.146 0 01-.148-.148v-.742c0-.083.065-.148.148-.148h.446v-1.484h-.446a.146.146 0 01-.148-.148v-.742c0-.083.065-.148.148-.148h1.484zm0-1.632c.084 0 .148.065.148.148v.742a.146.146 0 01-.148.148h-.89a.146.146 0 01-.148-.148v-.742c0-.083.064-.148.148-.148h.89z"/>
</svg>
